<svg width="224" height="191" viewBox="0 0 224 191" fill="none" xmlns="http://www.w3.org/2000/svg">
<path d="M78 48C67.5066 48 59 56.5066 59 67V124C59 134.493 67.5066 143 78 143H146C156.493 143 165 134.493 165 124V67C165 56.5066 156.493 48 146 48H78Z" fill="black"/>
<path fill-rule="evenodd" clip-rule="evenodd" d="M112 0C90.0978 0 70.6015 4.13833 53.5111 12.415C36.4207 20.6917 23.2296 32.0721 13.9378 46.5562C4.64594 61.0404 0 77.355 0 95.5C0 113.645 4.64594 129.96 13.9378 144.444C23.2296 158.928 36.4207 170.308 53.5111 178.585C70.6015 186.862 90.0978 191 112 191C133.902 191 153.399 186.862 170.489 178.585C187.579 170.308 200.77 158.928 210.062 144.444C219.354 129.96 224 113.645 224 95.5C224 77.355 219.354 61.0404 210.062 46.5563C200.77 32.0721 187.579 20.6917 170.489 12.415C153.399 4.13833 133.902 0 112 0ZM121.726 12.2624C133.217 11.9898 143.995 11.734 154.062 15.1606C161.209 17.5776 161.854 25.9883 162.494 34.3228C163.012 41.0818 163.527 47.7906 167.502 51.2119C171.578 54.7558 179.307 54.811 186.959 54.8656C195.974 54.9299 204.881 54.9935 207.573 60.7619C210.708 67.5268 209.303 74.6229 207.832 82.0504C206.968 86.419 206.08 90.9022 206.08 95.5C206.08 100.104 206.97 104.587 207.836 108.95C209.305 116.353 210.705 123.409 207.573 130.119C204.87 135.954 195.902 136.014 186.849 136.075C179.234 136.126 171.558 136.178 167.502 139.669C163.528 143.125 163.012 149.86 162.494 156.637C161.854 164.997 161.21 173.422 154.062 175.839C143.995 179.266 133.217 179.01 121.726 178.738C118.539 178.662 115.297 178.585 112 178.585C108.705 178.585 105.463 178.662 102.274 178.737C90.7671 179.01 79.9469 179.267 69.8133 175.839C62.7244 173.426 62.1024 165.028 61.4845 156.682C60.9815 149.89 60.4811 143.133 56.4978 139.669C52.4419 136.178 44.7662 136.126 37.1505 136.075C28.098 136.014 19.1301 135.954 16.4267 130.119C13.2947 123.409 14.6951 116.353 16.1644 108.95C17.0302 104.587 17.92 100.104 17.92 95.5C17.92 90.9022 17.0325 86.419 16.1676 82.0504C14.6972 74.6229 13.2924 67.5268 16.4267 60.7619C19.1192 54.9935 28.0258 54.9299 37.0411 54.8656C44.6927 54.811 52.4225 54.7558 56.4978 51.2119C60.4818 47.783 60.9817 41.0521 61.4847 34.2779C62.1026 25.9582 62.7253 17.5733 69.8133 15.1606C79.9469 11.7334 90.7671 11.9899 102.274 12.2626C105.463 12.3382 108.705 12.415 112 12.415C115.297 12.415 118.539 12.3381 121.726 12.2624Z" fill="black"/>
</svg>
